<svg xmlns="http://www.w3.org/2000/svg" xmlns:xlink="http://www.w3.org/1999/xlink" version="1.1" id="Layer_1" x="0px" y="0px" viewBox="0 0 336.314 337.751" enable-background="new 0 0 336.314 337.751" xml:space="preserve"><style>.style0{fill:	#CD2D00;}.style1{fill:	#FFFFFF;}.style2{stop-color:	#FF3E1F;}.style3{stop-color:	#FF3E1F;stop-opacity:	0;}.style4{fill:	url(#SVGID_1_);}</style><g id="arrow"><g><g><line x1="167.5" y1="169" x2="243.5" y2="169" class="style0"/><path d="M167.86 166c0 0 4.7 0.1 11.9 0.212c3.558 0.1 7.7 0.2 12.2 0.3 c4.447 0.1 9.2 0.3 13.9 0.473c2.372 0.1 4.7 0.2 7.1 0.251c2.335 0.1 4.6 0.2 6.9 0.3 c4.447 0.2 8.6 0.4 12.2 0.621c3.558 0.2 6.5 0.4 8.6 0.561c2.075 0.2 3.3 0.3 3.3 0.3 s-1.186 0.092-3.261 0.254c-2.075 0.155-5.04 0.364-8.598 0.561c-3.558 0.231-7.708 0.422-12.155 0.6 c-2.224 0.095-4.521 0.225-6.856 0.296c-2.335 0.083-4.706 0.167-7.078 0.251c-4.744 0.159-9.487 0.359-13.934 0.5 c-4.447 0.121-8.598 0.235-12.155 0.332C172.604 171.9 167.9 172 167.9 172c-1.657 0.03-3.024-1.289-3.054-2.946 s1.289-3.024 2.946-3.054C167.785 166 167.8 166 167.9 166z" class="style0"/></g><circle cx="167.8" cy="168.9" r="1.9" class="style1"/></g><linearGradient id="SVGID_1_" gradientUnits="userSpaceOnUse" x1="234.4" y1="156.7" x2="177.1" y2="131.5"><stop offset="0" class="style2"/><stop offset="1" class="style3"/></linearGradient><path d="M165.509 91v78h78C243.509 126 208.5 91 165.5 91z" class="style4"/></g></svg>