<svg xmlns="http://www.w3.org/2000/svg" xmlns:xlink="http://www.w3.org/1999/xlink" version="1.1" id="Layer_1" x="0px" y="0px" viewBox="0 0 336.314 337.751" enable-background="new 0 0 336.314 337.751" xml:space="preserve"><style>.style0{fill:	#FFCB08;}.style1{stop-color:	#ED9402;}.style10{fill:	#FFFFFF;}.style2{stop-color:	#F2A502;stop-opacity:	0.6328;}.style3{stop-color:	#F9BE02;stop-opacity:	0;}.style4{clip-path:	url(#SVGID_2_);fill:	url(#SVGID_3_);}.style5{fill:	#F2F2F2;}.style6{fill:	#252633;}.style7{fill:	#595C6F;}.style8{fill:	#414457;}.style9{fill:	#45485B;}</style><g id="Clock"><circle cx="168.2" cy="168.9" r="168.9" class="style0"/><g><defs><circle id="SVGID_1_" cx="168.2" cy="168.9" r="168.9"/></defs><clipPath id="SVGID_2_"><use xlink:href="#SVGID_1_" overflow="visible"/></clipPath><linearGradient id="SVGID_3_" gradientUnits="userSpaceOnUse" x1="166.1" y1="254.4" x2="380.8" y2="252.4"><stop offset="0" class="style1"/><stop offset="0.3672" class="style2"/><stop offset="1" class="style3"/></linearGradient><path d="M433.567 298.716c-0.542-0.554-1.089-1.104-1.645-1.645 c-0.542-0.554-10.956-10.971-11.511-11.511c-0.454-0.463-0.907-0.927-1.37-1.381l1.588-2.751l3.374 1.9 c1.292 0.7 2.9 0.3 3.689-0.988l2.701-4.677c0.746-1.292 0.303-2.943-0.988-3.689l-0.49-0.283 c-0.215-0.552-196.312-196.753-196.865-197.072l-0.49-0.283c-0.215-0.552-0.601-1.042-1.154-1.362l-14.812-8.552 c-1.292-0.746-2.943-0.303-3.689 0.988l-1.426 2.47c-0.186-0.133-0.384-0.245-0.588-0.351c-0.471-0.929-1.189-1.701-2.087-2.15 c-0.392-0.793-18.899-19.383-19.571-19.826c-0.382-0.412-0.833-0.752-1.336-1.016c-0.761-1.498-2.176-2.584-3.923-2.584h-30.319 c-2.644 0-5.146 2.479-5.146 5.123v9.574c0 1.7 8.1 9.7 8.5 10.056c0.43 0.7 1.1 1.2 1.9 1.6 c0.348 0.7 0.9 1.3 1.6 1.756v0.825c-8.308 0.738-16.721 2.646-24.652 5.524c-0.279-0.292-0.616-0.507-0.982-0.647 l-0.281-0.486c-0.322-0.558-7.386-7.507-7.927-7.724l-0.289-0.499c-0.322-0.557-0.817-0.945-1.375-1.159l-0.28-0.486 c-0.746-1.292-2.396-1.734-3.688-0.988l-14.811 8.552c-1.292 0.746-1.734 2.397-0.988 3.689l2.701 4.7 c0.32 0.6 0.8 0.9 1.4 1.155l0.283 0.49c0.319 0.6 0.8 0.9 1.4 1.154l0.283 0.491c0.32 0.6 0.8 0.9 1.4 1.2 l0.283 0.49c0.32 0.6 0.8 0.9 1.4 1.155l0.083 0.143c-24.899 17.281-41.212 46.065-41.212 78.7 c0 26.8 11.1 51.1 28.9 68.492c0.54 0.6 1.1 1.1 1.6 1.641c0.543 0.6 193.5 193.5 194.1 194.1 c0.542 0.6 1.1 1.1 1.6 1.645C315.704 451.9 340 463 366.8 463c52.86 0 95.711-42.852 95.711-95.711 C462.525 340.4 451.4 316.1 433.6 298.716z" class="style4"/></g><g><circle cx="168.2" cy="168.3" r="83.9" class="style5"/><g><g><rect x="159.6" y="62.2" width="16" height="12.8" class="style6"/><g><path d="M187.761 58.697c0 2.644-2.143 4.787-4.787 4.787h-30.319c-2.644 0-4.787-2.143-4.787-4.787v-9.574 c0-2.644 2.143-4.787 4.787-4.787h30.319c2.644 0 4.8 2.1 4.8 4.787V58.697z" class="style7"/></g></g><g><rect x="150.5" y="47" width="2" height="14" class="style8"/><rect x="153.5" y="47" width="1" height="14" class="style8"/><rect x="156.5" y="47" width="2" height="14" class="style8"/><rect x="160.5" y="47" width="2" height="14" class="style8"/><rect x="163.5" y="47" width="2" height="14" class="style8"/><rect x="166.5" y="47" width="2" height="14" class="style8"/><rect x="170.5" y="47" width="1" height="14" class="style8"/><rect x="173.5" y="47" width="1" height="14" class="style8"/><rect x="176.5" y="47" width="2" height="14" class="style8"/><rect x="180.5" y="47" width="1" height="14" class="style8"/><rect x="183.5" y="47" width="2" height="14" class="style8"/></g></g><g><g><g><rect x="114.8" y="79.1" transform="matrix(0.866 -0.5 0.5 0.866 -25.3493 70.7488)" width="9" height="7.2" class="style6"/><g><path d="M126.424 72.135c0.746 1.3 0.3 2.943-0.988 3.689l-14.812 8.6 c-1.292 0.746-2.943 0.303-3.689-0.988l-2.701-4.677c-0.746-1.292-0.303-2.943 0.988-3.689l14.812-8.552 c1.292-0.746 2.943-0.303 3.7 0.988L126.424 72.135z" class="style7"/></g></g><g><rect x="106.7" y="76.5" transform="matrix(-0.866 0.5 -0.5 -0.866 240.502 96.1279)" width="1.4" height="7.5" class="style8"/><rect x="108.3" y="75.7" transform="matrix(-0.866 0.5 -0.5 -0.866 242.7525 93.8774)" width="0.9" height="7.5" class="style8"/><rect x="110" y="74.8" transform="matrix(-0.866 0.5 -0.5 -0.866 245.3245 91.3054)" width="0.9" height="7.5" class="style8"/><rect x="112" y="73.7" transform="matrix(-0.866 0.5 -0.5 -0.866 248.2181 88.4119)" width="0.5" height="7.5" class="style8"/><rect x="113.2" y="72.9" transform="matrix(-0.866 0.5 -0.5 -0.866 250.4686 86.1613)" width="0.9" height="7.5" class="style8"/><rect x="114.9" y="71.9" transform="matrix(-0.866 0.5 -0.5 -0.866 253.0406 83.5893)" width="0.9" height="7.5" class="style8"/><rect x="116.5" y="71" transform="matrix(-0.866 0.5 -0.5 -0.866 255.6126 81.0173)" width="0.9" height="7.5" class="style8"/><rect x="118.1" y="70" transform="matrix(-0.866 0.5 -0.5 -0.866 258.1846 78.4453)" width="0.9" height="7.5" class="style8"/><rect x="119.7" y="69.1" transform="matrix(-0.866 0.5 -0.5 -0.866 260.7566 75.8733)" width="0.9" height="7.5" class="style8"/><rect x="121.4" y="68.2" transform="matrix(-0.866 0.5 -0.5 -0.866 263.3286 73.3013)" width="0.9" height="7.5" class="style8"/><rect x="119.7" y="70.5" transform="matrix(-0.5 -0.866 0.866 -0.5 123.7337 213.4148)" width="7.5" height="0.9" class="style8"/></g></g><g><g><rect x="211.8" y="79.1" transform="matrix(-0.866 -0.5 0.5 -0.866 362.2517 262.4187)" width="9" height="7.2" class="style6"/><g><path d="M209.203 72.135c-0.746 1.292-0.303 2.9 1 3.689l14.812 8.6 c1.292 0.7 2.9 0.3 3.689-0.988l2.701-4.677c0.746-1.292 0.303-2.943-0.988-3.689l-14.812-8.552 c-1.292-0.746-2.943-0.303-3.689 0.988L209.203 72.135z" class="style7"/></g></g><g><rect x="227.5" y="76.5" transform="matrix(0.866 0.5 -0.5 0.866 70.723 -103.3716)" width="1.4" height="7.5" class="style8"/><rect x="226.4" y="75.7" transform="matrix(0.866 0.5 -0.5 0.866 70.12 -102.7685)" width="0.9" height="7.5" class="style8"/><rect x="224.7" y="74.8" transform="matrix(0.866 0.5 -0.5 0.866 69.4308 -102.0794)" width="0.9" height="7.5" class="style8"/><rect x="223.1" y="73.7" transform="matrix(0.866 0.5 -0.5 0.866 68.6555 -101.304)" width="0.5" height="7.5" class="style8"/><rect x="221.5" y="72.9" transform="matrix(0.866 0.5 -0.5 0.866 68.0525 -100.701)" width="0.9" height="7.5" class="style8"/><rect x="219.8" y="71.9" transform="matrix(0.866 0.5 -0.5 0.866 67.3633 -100.0119)" width="0.9" height="7.5" class="style8"/><rect x="218.2" y="71" transform="matrix(0.866 0.5 -0.5 0.866 66.6741 -99.3227)" width="0.9" height="7.5" class="style8"/><rect x="216.6" y="70" transform="matrix(0.866 0.5 -0.5 0.866 65.985 -98.6335)" width="0.9" height="7.5" class="style8"/><rect x="214.9" y="69.1" transform="matrix(0.866 0.5 -0.5 0.866 65.2958 -97.9444)" width="0.9" height="7.5" class="style8"/><rect x="213.3" y="68.2" transform="matrix(0.866 0.5 -0.5 0.866 64.6066 -97.2552)" width="0.9" height="7.5" class="style8"/><rect x="208.4" y="70.5" transform="matrix(0.5 -0.866 0.866 0.5 44.5988 219.2245)" width="7.5" height="0.9" class="style8"/></g></g></g><g><g><circle cx="167.8" cy="168.3" r="95.7" class="style9"/></g><g><circle cx="167.8" cy="168.3" r="80.4" class="style10"/></g><g><rect x="166.5" y="93" width="4" height="14" class="style9"/></g><g><rect x="126.8" y="107.6" transform="matrix(0.5 0.866 -0.866 0.5 161.6283 -61.1905)" width="14.1" height="3.5" class="style9"/></g><g><rect x="101.6" y="132.8" transform="matrix(0.866 0.5 -0.5 0.866 81.8201 -36.307)" width="14.1" height="3.5" class="style9"/></g><g><rect x="92.5" y="167" width="14" height="4" class="style9"/></g><g><rect x="106.9" y="196.2" transform="matrix(0.4999 0.8661 -0.8661 0.4999 230.3472 7.522)" width="3.5" height="14.1" class="style9"/></g><g><rect x="132" y="221.3" transform="matrix(0.8661 0.4999 -0.4999 0.8661 132.0885 -36.307)" width="3.5" height="14.1" class="style9"/></g><g><rect x="166.5" y="230" width="4" height="14" class="style9"/></g><g><rect x="195.5" y="226.6" transform="matrix(0.5 0.866 -0.866 0.5 299.0307 -61.1901)" width="14.1" height="3.5" class="style9"/></g><g><rect x="220.6" y="201.5" transform="matrix(0.866 0.5 -0.5 0.866 132.1126 -86.5997)" width="14.1" height="3.5" class="style9"/></g><g><rect x="229.5" y="167" width="14" height="4" class="style9"/></g><g><rect x="225.9" y="127.5" transform="matrix(0.4999 0.8661 -0.8661 0.4999 230.3539 -129.8913)" width="3.5" height="14.1" class="style9"/></g><g><rect x="200.7" y="102.3" transform="matrix(0.8661 0.4999 -0.4999 0.8661 81.8021 -86.5886)" width="3.5" height="14.1" class="style9"/></g><g><rect x="184.9" y="95.6" transform="matrix(0.9659 0.2588 -0.2588 0.9659 32.2216 -44.8989)" width="3.5" height="8.7" class="style9"/></g><g><rect x="145.3" y="98.2" transform="matrix(0.2589 0.9659 -0.9659 0.2589 207.4479 -70.5235)" width="8.7" height="3.5" class="style9"/></g><g><rect x="113.3" y="116.6" transform="matrix(0.7071 0.7071 -0.7071 0.7071 118.1894 -48.5346)" width="8.7" height="3.5" class="style9"/></g><g><rect x="94.8" y="148.6" transform="matrix(0.9659 0.2589 -0.2589 0.9659 42.3204 -20.5562)" width="8.7" height="3.5" class="style9"/></g><g><rect x="97.4" y="183" transform="matrix(0.2588 0.9659 -0.9659 0.2588 254.4973 43.0353)" width="3.5" height="8.7" class="style9"/></g><g><rect x="115.9" y="215" transform="matrix(0.7071 0.7071 -0.7071 0.7071 189.573 -18.9666)" width="3.5" height="8.7" class="style9"/></g><g><rect x="147.9" y="233.5" transform="matrix(0.9659 0.2588 -0.2588 0.9659 66.6539 -30.6366)" width="3.5" height="8.7" class="style9"/></g><g><rect x="182.3" y="236.1" transform="matrix(0.2589 0.9659 -0.9659 0.2589 368.032 -4.0149)" width="8.7" height="3.5" class="style9"/></g><g><rect x="214.3" y="217.6" transform="matrix(0.7071 0.7071 -0.7071 0.7071 219.1411 -90.3502)" width="8.7" height="3.5" class="style9"/></g><g><rect x="232.7" y="185.6" transform="matrix(0.9659 0.2589 -0.2589 0.9659 56.5884 -54.9984)" width="8.7" height="3.5" class="style9"/></g><g><rect x="235.3" y="146" transform="matrix(0.2588 0.9659 -0.9659 0.2588 321.0158 -117.5544)" width="3.5" height="8.7" class="style9"/></g><g><rect x="216.9" y="114" transform="matrix(0.7071 0.7071 -0.7071 0.7071 147.7575 -119.9183)" width="3.5" height="8.7" class="style9"/></g><g><circle cx="168.2" cy="168.9" r="3.3" class="style9"/></g></g></g></g></svg>